<svg width="177" height="24" xmlns="http://www.w3.org/2000/svg"><g fill="none" fill-rule="evenodd"><path d="M9.445 18.618C4.314 18.618 0 14.441 0 9.31 0 4.18 4.314 0 9.445 0c2.839 0 4.859 1.112 6.381 2.565L14.032 4.36c-1.09-1.022-2.566-1.816-4.587-1.816-3.746 0-6.675 3.02-6.675 6.766s2.929 6.766 6.675 6.766c2.43 0 3.814-.976 4.7-1.862.726-.726 1.204-1.77 1.385-3.2H9.445V8.468h8.56c.091.454.137 1 .137 1.59 0 1.907-.523 4.268-2.203 5.948-1.635 1.703-3.724 2.611-6.494 2.611z" fill="#4285F4"/><path d="M28.795 12.624c0-2.157-1.538-3.633-3.322-3.633-1.783 0-3.321 1.476-3.321 3.633 0 2.134 1.538 3.633 3.32 3.633 1.785 0 3.323-1.499 3.323-3.633m2.586 0c0 3.451-2.653 5.994-5.908 5.994-3.254 0-5.907-2.543-5.907-5.994 0-3.474 2.653-5.994 5.907-5.994 3.255 0 5.908 2.52 5.908 5.994" fill="#EA4335"/><path d="M42.039 12.624c0-2.157-1.538-3.633-3.322-3.633-1.783 0-3.322 1.476-3.322 3.633 0 2.134 1.539 3.633 3.322 3.633 1.784 0 3.322-1.499 3.322-3.633m2.586 0c0 3.451-2.653 5.994-5.908 5.994-3.255 0-5.907-2.543-5.907-5.994 0-3.474 2.652-5.994 5.907-5.994s5.908 2.52 5.908 5.994" fill="#FBBC05"/><path d="M55.221 12.647c0-2.111-1.408-3.656-3.2-3.656-1.817 0-3.339 1.545-3.339 3.656 0 2.089 1.522 3.61 3.338 3.61 1.793 0 3.201-1.521 3.201-3.61zm2.316-5.654v10.763c0 4.427-2.61 6.244-5.699 6.244-2.906 0-4.654-1.953-5.313-3.542l2.293-.954c.41.976 1.408 2.134 3.02 2.134 1.975 0 3.202-1.225 3.202-3.52v-.862h-.092c-.59.727-1.725 1.362-3.155 1.362-2.997 0-5.744-2.61-5.744-5.971 0-3.383 2.747-6.017 5.744-6.017 1.43 0 2.565.636 3.155 1.34h.092v-.977h2.497z" fill="#4285F4"/><path fill="#34A853" d="M59.519 18.255h2.634V.636h-2.634z"/><path d="M66.218 12.443l5.359-2.225c-.296-.75-1.181-1.272-2.225-1.272-1.34 0-3.201 1.18-3.134 3.497m6.289 2.157l2.044 1.362c-.658.977-2.248 2.657-4.995 2.657-3.405 0-5.865-2.634-5.865-5.994 0-3.565 2.482-5.995 5.57-5.995 3.11 0 4.632 2.475 5.13 3.815l.273.68-8.015 3.316c.614 1.203 1.567 1.816 2.907 1.816 1.339 0 2.27-.658 2.95-1.657" fill="#EA4335"/><path d="M84.784 17v-4.32c0-.427.09-.819.272-1.176.181-.357.43-.643.744-.856a1.88 1.88 0 011.08-.32c.373 0 .795.085 1.264.256V8.76c-.267-.107-.597-.16-.992-.16a2.7 2.7 0 00-1.424.408c-.448.272-.763.616-.944 1.032h-.08v-1.2h-1.68V17h1.76zm8.452.256c.864 0 1.605-.192 2.224-.576a4.384 4.384 0 001.504-1.584l-1.488-.704c-.224.395-.52.707-.888.936-.368.23-.803.344-1.304.344-.63 0-1.181-.205-1.656-.616-.475-.41-.744-.995-.808-1.752h6.256a4.09 4.09 0 00.048-.56c0-.79-.157-1.499-.472-2.128a3.562 3.562 0 00-1.376-1.488c-.603-.363-1.315-.544-2.136-.544-.79 0-1.493.197-2.112.592a4.09 4.09 0 00-1.448 1.592 4.63 4.63 0 00-.52 2.168c0 .821.179 1.56.536 2.216.357.656.853 1.17 1.488 1.544.635.373 1.352.56 2.152.56zm2.096-5.296H90.9c.15-.565.419-1.016.808-1.352.39-.336.867-.504 1.432-.504.47 0 .867.096 1.192.288.325.192.568.43.728.712.16.283.25.568.272.856zm9.588 5.296c.928 0 1.781-.181 2.56-.544a5.834 5.834 0 002-1.52l-1.296-1.248c-.896 1.067-1.984 1.6-3.264 1.6-.768 0-1.47-.176-2.104-.528a3.917 3.917 0 01-1.512-1.496c-.373-.645-.56-1.395-.56-2.248 0-.853.187-1.603.56-2.248a3.917 3.917 0 011.512-1.496A4.265 4.265 0 01104.92 7c.619 0 1.168.115 1.648.344.48.23.917.579 1.312 1.048l1.28-1.232a5.591 5.591 0 00-1.88-1.392c-.71-.32-1.496-.48-2.36-.48-1.11 0-2.123.261-3.04.784a5.677 5.677 0 00-2.16 2.16c-.523.917-.784 1.93-.784 3.04s.261 2.123.784 3.04a5.677 5.677 0 002.16 2.16c.917.523 1.93.784 3.04.784zm7.972-.256l1.04-2.928h4.624L119.58 17h1.984L117.26 5.544h-2.048L110.908 17h1.984zm5.056-4.592h-3.424L115.74 9l.448-1.328h.096L116.732 9l1.216 3.408zm7.46 4.592v-4.448h2.176c.672 0 1.293-.15 1.864-.448a3.487 3.487 0 001.36-1.248 3.32 3.32 0 00.504-1.808 3.32 3.32 0 00-.504-1.808 3.487 3.487 0 00-1.36-1.248 3.959 3.959 0 00-1.864-.448h-3.968V17h1.792zm2.208-6.144h-2.208v-3.6h2.208c.395 0 .736.085 1.024.256.288.17.507.395.656.672a1.8 1.8 0 01.224.864 1.8 1.8 0 01-.88 1.544c-.288.176-.63.264-1.024.264zM137.748 17V7.256h3.2V5.544h-8.192v1.712h3.2V17h1.792zm10.356.256c.928 0 1.781-.181 2.56-.544a5.834 5.834 0 002-1.52l-1.296-1.248c-.896 1.067-1.984 1.6-3.264 1.6-.768 0-1.47-.176-2.104-.528a3.917 3.917 0 01-1.512-1.496c-.373-.645-.56-1.395-.56-2.248 0-.853.187-1.603.56-2.248A3.917 3.917 0 01146 7.528 4.265 4.265 0 01148.104 7c.619 0 1.168.115 1.648.344.48.23.917.579 1.312 1.048l1.28-1.232a5.591 5.591 0 00-1.88-1.392c-.71-.32-1.496-.48-2.36-.48-1.11 0-2.123.261-3.04.784a5.677 5.677 0 00-2.16 2.16c-.523.917-.784 1.93-.784 3.04s.261 2.123.784 3.04a5.677 5.677 0 002.16 2.16c.917.523 1.93.784 3.04.784zm8.852-.256v-5.008h5.312V17h1.776V5.544h-1.776v4.752h-5.312V5.544h-1.792V17h1.792zm11.124 0l1.04-2.928h4.624L174.768 17h1.984l-4.304-11.456H170.4L166.096 17h1.984zm5.056-4.592h-3.424L170.928 9l.448-1.328h.096L171.92 9l1.216 3.408z" fill="#969696" fill-rule="nonzero"/></g></svg>